<svg xmlns="http://www.w3.org/2000/svg" width="206" height="206" viewBox="0 0 206 206">
  <g id="Group_4" data-name="Group 4" transform="translate(-563 -1239)">
    <g id="Group_1" data-name="Group 1" transform="translate(418 12)">
      <rect id="Rectangle_1" data-name="Rectangle 1" width="206" height="206" transform="translate(145 1227)" fill="none"/>
    </g>
    <g id="Layer_1-2" transform="translate(562.99 1287.429)">
      <path id="Path_9" data-name="Path 9" d="M48.313,50.5c1.246.368,14.226-16.006,21.12-23.564S96.319,2.266,99.879.712s3.773-.451,2.219,2.219-9.112,18.676-7.558,33.78,2.883,19.34,7.333,26.008,6.668,8.223,8.448,7.558,6.894-4,9.777-4.888,4.888-.225,3.334,1.329-1.329,7.784-.664,9.112a4.646,4.646,0,0,0,2.9,2.883c1.78.664,72.235,18.676,80.232,30.007.439.451-.451.664-1.115,0s-12.672-11.557-75.343-26.9c.225-.451-1.554,1.329-3.773,2.005s-27.337,2.67-50.45-.89S30.539,71.606,27.644,71.606s-13.111-3.56-16.22-3.56c-2.219-.225-4.449-2.444-4-3.334s6.668-.451,8-.664,2.67-2.005,2.005-1.554-11.782-2.444-14-3.109-4.888-3.109-2.444-4,11.118-.664,13.111-.89,4.449-2.219,6.894-2.444,20.444-3.56,27.337-1.554Z" transform="translate(0 0)" fill="red"/>
    </g>
  </g>
</svg>
