<svg xmlns="http://www.w3.org/2000/svg" width="500.89" height="77.6" viewBox="0 0 500.89 77.6">
  <g id="Group_4" data-name="Group 4" transform="translate(-773 -1282.415)">
    <g id="Layer_3" transform="translate(772.99 1282.425)">
      <path id="Path_1" data-name="Path 1" d="M76.23,43a5.423,5.423,0,0,0-3.04,2.15,7.413,7.413,0,0,0-.84,3.57c-.07,1.61-.1,3.22-.1,4.83V68.88a23.236,23.236,0,0,1-3.62,2.1,64.509,64.509,0,0,1-7.04,2.99,64.981,64.981,0,0,1-9.19,2.57,49.3,49.3,0,0,1-10.08,1.05,57.524,57.524,0,0,1-17.85-2.57,35.38,35.38,0,0,1-13.28-7.56A32.862,32.862,0,0,1,2.9,55.28,42.822,42.822,0,0,1,.01,39.16a40.263,40.263,0,0,1,.52-6.04A40.74,40.74,0,0,1,6.04,18.26a37.365,37.365,0,0,1,5.93-7.35A37.958,37.958,0,0,1,24.36,2.98q7.35-3,17.85-2.99a50.642,50.642,0,0,1,11.13,1.1,56.659,56.659,0,0,1,8.14,2.42,33.468,33.468,0,0,1,5.09,2.42,9.789,9.789,0,0,0,2,1.1c.15,0,.52-.42,1.16-1.26s1.4-1.85,2.31-3.04h.94V25.62H71.72a36.692,36.692,0,0,0-3.46-8.92,32.656,32.656,0,0,0-4.94-6.93,24.826,24.826,0,0,0-8.61-5.78A30.1,30.1,0,0,0,42.95,1.78a25.153,25.153,0,0,0-12.49,3.1,29.869,29.869,0,0,0-9.45,8.29,38.954,38.954,0,0,0-5.98,11.97,47.806,47.806,0,0,0-2.1,14.23,52.42,52.42,0,0,0,2,14.96,34.38,34.38,0,0,0,5.77,11.6,26.363,26.363,0,0,0,9.24,7.51,28.071,28.071,0,0,0,12.49,2.68,25.334,25.334,0,0,0,9.4-1.73,14.294,14.294,0,0,0,6.88-5.62,12.934,12.934,0,0,0,1.26-4.83,59.307,59.307,0,0,0,.42-7.14,52.81,52.81,0,0,0-.37-6.62,8.352,8.352,0,0,0-2.15-4.83c-1.61-1.82-4.45-2.9-8.5-3.25V41.05H80.14V42.1a20.78,20.78,0,0,0-3.89.89Z" fill="red"/>
      <path id="Path_2" data-name="Path 2" d="M152.25,77.07H87.99V76.02a21.235,21.235,0,0,0,4.88-1.37,10.022,10.022,0,0,0,3.73-2.62,4.712,4.712,0,0,0,.84-1.84c.21-.8.4-1.73.58-2.78a33.138,33.138,0,0,0,.37-3.31c.07-1.15.1-2.29.1-3.41,0-.98.02-2.31.05-3.99s.07-3.52.1-5.51.05-4.04.05-6.14V18.49c0-1.26-.02-2.55-.05-3.88s-.1-2.59-.21-3.78a19.632,19.632,0,0,0-.52-3.2,4.5,4.5,0,0,0-1-2.05,7.118,7.118,0,0,0-3.36-2.15,42.506,42.506,0,0,0-4.62-.89V1.49h57.96l7.14,17.32-1.05.53q-8.5-10.6-15.96-14.28a25.463,25.463,0,0,0-6.61-1.47,92.907,92.907,0,0,0-11.76-.63c-1.47,0-2.99.05-4.57.16a30.319,30.319,0,0,0-3.41.37q-.21,1.68-.37,6.93t-.16,12.18v6.72c0,1.82.02,3.31.05,4.46s.05,2.05.05,2.68v1.15h2.1c1.05,0,2.26-.03,3.62-.1s2.73-.16,4.09-.26a22.813,22.813,0,0,0,3.41-.47,17.988,17.988,0,0,0,5.25-2,11.438,11.438,0,0,0,3.41-3.04,14.843,14.843,0,0,0,2.1-4.15,50.725,50.725,0,0,0,1.42-5.3h1.26V55.36h-1.26a36.147,36.147,0,0,0-2.57-6.93,18.284,18.284,0,0,0-3.62-5.35,13.994,13.994,0,0,0-4.04-2.42,18.309,18.309,0,0,0-5.51-1.16c-1.05-.07-1.93-.12-2.62-.16s-1.4-.05-2.1-.05h-4.83a32.849,32.849,0,0,0-.21,4.3v12.6c0,1.12.02,2.19.05,3.2s.05,1.87.05,2.57q.1,3.36.37,6.35a9.953,9.953,0,0,0,1.21,4.46q.945,1.47,4.51,2.1a44.783,44.783,0,0,0,7.77.63c1.19,0,2.71-.03,4.57-.1s3.8-.25,5.83-.53a22.872,22.872,0,0,0,6.2-1.63,21.606,21.606,0,0,0,5.46-3.41,34.151,34.151,0,0,0,5.09-5.41,72.378,72.378,0,0,0,5.09-7.72l1.15.32-5.25,20.05Z" fill="red"/>
      <path id="Path_3" data-name="Path 3" d="M236.98,54.29a38.962,38.962,0,0,1-8.56,12.39,37.858,37.858,0,0,1-12.6,8.08,42.587,42.587,0,0,1-30.4.05,37.722,37.722,0,0,1-12.49-7.88,37.018,37.018,0,0,1-8.45-12.18,38.405,38.405,0,0,1-3.1-15.59,38.9,38.9,0,0,1,3.25-16.22,36.508,36.508,0,0,1,8.77-12.18,38.775,38.775,0,0,1,12.92-7.67A45.375,45.375,0,0,1,201.91.41a39,39,0,0,1,16.01,3.15,36.483,36.483,0,0,1,12.02,8.45,37.048,37.048,0,0,1,7.56,12.23,40.56,40.56,0,0,1,2.62,14.49,38.068,38.068,0,0,1-3.15,15.54ZM225.49,25.94a41.089,41.089,0,0,0-4.93-11.81,28.165,28.165,0,0,0-8.24-8.61,20.408,20.408,0,0,0-11.65-3.31,21,21,0,0,0-11.81,3.31,26.927,26.927,0,0,0-8.19,8.56A39.629,39.629,0,0,0,175.94,26a60.136,60.136,0,0,0-1.52,13.49,56.88,56.88,0,0,0,1.68,13.75,38.221,38.221,0,0,0,4.99,11.66,26.079,26.079,0,0,0,8.29,8.08,21.8,21.8,0,0,0,11.6,3.04,19.8,19.8,0,0,0,11.5-3.36A28.5,28.5,0,0,0,220.62,64a41.432,41.432,0,0,0,4.88-11.92,55.455,55.455,0,0,0,1.63-13.23,52.114,52.114,0,0,0-1.63-12.92Z" fill="red"/>
      <path id="Path_4" data-name="Path 4" d="M262.88,62.66l39.62-.24-.35,9.8-49.37.29-.11-19.12c-.08-12.96,7.68-19.69,23.29-19.8l5.2-.03c6.17-.04,9.32-3.05,9.46-8.42.13-5.42-2.83-7.98-9.18-7.93l-22.64.16V6.64l21.45-.15c14.48-.1,21.27,5.96,20.86,18.39-.41,12.46-7.7,18.88-21.56,18.97l-4.97.03c-7.74.05-11.66,3.19-11.68,9.27l-.02,9.51Z" fill="#fff"/>
      <path id="Path_5" data-name="Path 5" d="M339.75,73.13c-18.77.11-33.89-14.67-33.2-32.96.71-18.85,17.9-35.16,37.75-35.3,19.96-.14,34.92,15.97,33.13,34.75-1.75,18.41-18.98,33.4-37.67,33.51Zm3.72-57.5c-13.8.09-25.68,11.41-26.29,24.57-.6,12.89,9.93,23.22,23.21,23.14,13.19-.08,25.21-10.56,26.34-23.55,1.14-13.18-9.45-24.25-23.26-24.15Z" fill="#fff"/>
      <path id="Path_6" data-name="Path 6" d="M414.38,42.25l-28.41.18,3.76-36.71,48.95-.34-1.52,10.76-37.95.26-1.73,15.65,16.84-.11c15.69-.1,22.66,6.65,20.74,20.04-1.87,13.02-10.3,19.51-25.67,19.6l-28.3.17.99-9.82,29.85-.18c7.66-.05,11.97-3.29,12.84-9.79.87-6.48-2.62-9.76-10.4-9.71Z" fill="#fff"/>
      <path id="Path_7" data-name="Path 7" d="M474.75,41.86l-28.47.18,5.57-36.76,49.05-.35-2.05,10.78-38.03.26-2.5,15.67,16.88-.11c15.72-.1,22.37,6.66,19.79,20.07-2.51,13.03-11.27,19.53-26.68,19.62l-28.35.17,1.47-9.83,29.91-.18c7.67-.05,12.15-3.3,13.34-9.8,1.19-6.48-2.14-9.77-9.94-9.72Z" fill="#fff"/>
      <path id="Path_8" data-name="Path 8" d="M248.81,72.25l48.59-.12-.12-10.34-38.49.12V51.45s-1.19-7.84,10.22-8.67c3.56.12,8.55-.12,8.55-.12s16.28.24,17.23-16.51c.12-2.85,1.9-17.58-16.4-19.37-3.09-.24-23.64-.12-23.64-.12v10.1l22.1-.12s7.72-.12,7.96,6.89c.12,1.54.71,8.32-7.29,9.11h-6.5s-17.5-.87-21.47,12.51c-.32,1.43-.87,5.54-.87,5.54l.12,21.54Z" fill="none"/>
      <path id="Path_10" data-name="Path 10" d="M76.23,43a5.423,5.423,0,0,0-3.04,2.15,7.413,7.413,0,0,0-.84,3.57c-.07,1.61-.1,3.22-.1,4.83V68.88a23.236,23.236,0,0,1-3.62,2.1,64.509,64.509,0,0,1-7.04,2.99,64.981,64.981,0,0,1-9.19,2.57,49.3,49.3,0,0,1-10.08,1.05,57.524,57.524,0,0,1-17.85-2.57,35.38,35.38,0,0,1-13.28-7.56A32.862,32.862,0,0,1,2.9,55.28,42.822,42.822,0,0,1,.01,39.16a40.263,40.263,0,0,1,.52-6.04A40.74,40.74,0,0,1,6.04,18.26a37.365,37.365,0,0,1,5.93-7.35A37.958,37.958,0,0,1,24.36,2.98q7.35-3,17.85-2.99a50.642,50.642,0,0,1,11.13,1.1,56.659,56.659,0,0,1,8.14,2.42,33.468,33.468,0,0,1,5.09,2.42,9.789,9.789,0,0,0,2,1.1c.15,0,.52-.42,1.16-1.26s1.4-1.85,2.31-3.04h.94V25.62H71.72a36.692,36.692,0,0,0-3.46-8.92,32.656,32.656,0,0,0-4.94-6.93,24.826,24.826,0,0,0-8.61-5.78A30.1,30.1,0,0,0,42.95,1.78a25.153,25.153,0,0,0-12.49,3.1,29.869,29.869,0,0,0-9.45,8.29,38.954,38.954,0,0,0-5.98,11.97,47.806,47.806,0,0,0-2.1,14.23,52.42,52.42,0,0,0,2,14.96,34.38,34.38,0,0,0,5.77,11.6,26.363,26.363,0,0,0,9.24,7.51,28.071,28.071,0,0,0,12.49,2.68,25.334,25.334,0,0,0,9.4-1.73,14.294,14.294,0,0,0,6.88-5.62,12.934,12.934,0,0,0,1.26-4.83,59.307,59.307,0,0,0,.42-7.14,52.81,52.81,0,0,0-.37-6.62,8.352,8.352,0,0,0-2.15-4.83c-1.61-1.82-4.45-2.9-8.5-3.25V41.05H80.14V42.1a20.78,20.78,0,0,0-3.89.89Z" fill="red"/>
      <path id="Path_11" data-name="Path 11" d="M152.25,77.07H87.99V76.02a21.235,21.235,0,0,0,4.88-1.37,10.022,10.022,0,0,0,3.73-2.62,4.712,4.712,0,0,0,.84-1.84c.21-.8.4-1.73.58-2.78a33.138,33.138,0,0,0,.37-3.31c.07-1.15.1-2.29.1-3.41,0-.98.02-2.31.05-3.99s.07-3.52.1-5.51.05-4.04.05-6.14V18.49c0-1.26-.02-2.55-.05-3.88s-.1-2.59-.21-3.78a19.632,19.632,0,0,0-.52-3.2,4.5,4.5,0,0,0-1-2.05,7.118,7.118,0,0,0-3.36-2.15,42.506,42.506,0,0,0-4.62-.89V1.49h57.96l7.14,17.32-1.05.53q-8.5-10.6-15.96-14.28a25.463,25.463,0,0,0-6.61-1.47,92.907,92.907,0,0,0-11.76-.63c-1.47,0-2.99.05-4.57.16a30.319,30.319,0,0,0-3.41.37q-.21,1.68-.37,6.93t-.16,12.18v6.72c0,1.82.02,3.31.05,4.46s.05,2.05.05,2.68v1.15h2.1c1.05,0,2.26-.03,3.62-.1s2.73-.16,4.09-.26a22.813,22.813,0,0,0,3.41-.47,17.988,17.988,0,0,0,5.25-2,11.438,11.438,0,0,0,3.41-3.04,14.843,14.843,0,0,0,2.1-4.15,50.725,50.725,0,0,0,1.42-5.3h1.26V55.36h-1.26a36.147,36.147,0,0,0-2.57-6.93,18.284,18.284,0,0,0-3.62-5.35,13.994,13.994,0,0,0-4.04-2.42,18.309,18.309,0,0,0-5.51-1.16c-1.05-.07-1.93-.12-2.62-.16s-1.4-.05-2.1-.05h-4.83a32.849,32.849,0,0,0-.21,4.3v12.6c0,1.12.02,2.19.05,3.2s.05,1.87.05,2.57q.1,3.36.37,6.35a9.953,9.953,0,0,0,1.21,4.46q.945,1.47,4.51,2.1a44.783,44.783,0,0,0,7.77.63c1.19,0,2.71-.03,4.57-.1s3.8-.25,5.83-.53a22.872,22.872,0,0,0,6.2-1.63,21.606,21.606,0,0,0,5.46-3.41,34.151,34.151,0,0,0,5.09-5.41,72.378,72.378,0,0,0,5.09-7.72l1.15.32-5.25,20.05Z" fill="red"/>
      <path id="Path_12" data-name="Path 12" d="M236.98,54.29a38.962,38.962,0,0,1-8.56,12.39,37.858,37.858,0,0,1-12.6,8.08,42.587,42.587,0,0,1-30.4.05,37.722,37.722,0,0,1-12.49-7.88,37.018,37.018,0,0,1-8.45-12.18,38.405,38.405,0,0,1-3.1-15.59,38.9,38.9,0,0,1,3.25-16.22,36.508,36.508,0,0,1,8.77-12.18,38.775,38.775,0,0,1,12.92-7.67A45.375,45.375,0,0,1,201.91.41a39,39,0,0,1,16.01,3.15,36.483,36.483,0,0,1,12.02,8.45,37.048,37.048,0,0,1,7.56,12.23,40.56,40.56,0,0,1,2.62,14.49,38.068,38.068,0,0,1-3.15,15.54ZM225.49,25.94a41.089,41.089,0,0,0-4.93-11.81,28.165,28.165,0,0,0-8.24-8.61,20.408,20.408,0,0,0-11.65-3.31,21,21,0,0,0-11.81,3.31,26.927,26.927,0,0,0-8.19,8.56A39.629,39.629,0,0,0,175.94,26a60.136,60.136,0,0,0-1.52,13.49,56.88,56.88,0,0,0,1.68,13.75,38.221,38.221,0,0,0,4.99,11.66,26.079,26.079,0,0,0,8.29,8.08,21.8,21.8,0,0,0,11.6,3.04,19.8,19.8,0,0,0,11.5-3.36A28.5,28.5,0,0,0,220.62,64a41.432,41.432,0,0,0,4.88-11.92,55.455,55.455,0,0,0,1.63-13.23,52.114,52.114,0,0,0-1.63-12.92Z" fill="red"/>
    </g>
  </g>
</svg>
